# xmcd
#
# Track frame offsets: 
#        150
#        25926
#        47124
#        64165
#        88513
#        118446
#        158461
#        184589
#        223787
#        239913
#        263394
#        292463
#        323526
#
# Disc length: 4584 seconds
#
# Revision: 0
# Processed by: cddbd v1.5.2PL0 Copyright (c) Steve Scherf et al.
# Submitted via: ExactAudioCopy v0.99pb3
#
DISCID=c011e60d
DTITLE=Tom Waits - This Is My America [CD2]
DYEAR=1900
DGENRE=Blues
TTITLE0=Lucky Day
TTITLE1=On The Nickel
TTITLE2=Lost In The Harbour
TTITLE3=Innocent When You Dream
TTITLE4=Hoist That Rag
TTITLE5=Make It Rain
TTITLE6=Dirt In The Ground
TTITLE7=Get Behind The Mule
TTITLE8=Hang Down Your Head
TTITLE9=Jesus Gonna Be Here
TTITLE10=Singapore
TTITLE11=Eyeball Kid
TTITLE12=Anywhere I Lay My Head
EXTD=
EXTT0=
EXTT1=
EXTT2=
EXTT3=
EXTT4=
EXTT5=
EXTT6=
EXTT7=
EXTT8=
EXTT9=
EXTT10=
EXTT11=
EXTT12=
PLAYORDER=
